<?xml version="1.0" encoding="UTF-8"?>
<svg version="1.1" xmlns="http://www.w3.org/2000/svg" width="400" height="400">
<path d="M0 0 C1.74355019 -0.01555183 1.74355019 -0.01555183 3.52232361 -0.03141785 C7.33897907 -0.0583721 11.15447595 -0.04884879 14.97119141 -0.03637695 C16.96532332 -0.04079416 18.95945585 -0.04522741 20.95358241 -0.05162269 C27.21577018 -0.0715087 33.47757563 -0.06608285 39.73974609 -0.04394531 C46.16912809 -0.02160079 52.59750491 -0.03917033 59.02679193 -0.0769946 C64.57540759 -0.10837337 70.1237145 -0.11610089 75.67240775 -0.10504085 C78.97383322 -0.09859844 82.27455865 -0.10288414 85.57593918 -0.12436485 C89.26358726 -0.14446387 92.94916397 -0.12583032 96.63671875 -0.09765625 C97.70930435 -0.11137268 98.78188995 -0.12508911 99.88697815 -0.13922119 C108.66706083 -0.00604452 116.37326308 2.68667888 123.07704735 8.51363087 C128.3758664 14.01713185 131.84044023 21.02863717 135.51025391 27.6628418 C136.56766453 29.54840474 137.62848057 31.43202734 138.68930054 33.31567383 C139.40625424 34.58946205 140.12209426 35.86387775 140.83682251 37.13891602 C144.13635186 43.02196119 147.53172853 48.84673865 150.94775391 54.6628418 C158.11849518 66.90959371 165.16473058 79.22566595 172.18115234 91.5612793 C173.75673915 94.32748366 175.33910709 97.08964554 176.92431641 99.8503418 C177.74488399 101.2876962 178.56522129 102.72518212 179.38525391 104.1628418 C179.74466064 104.78481445 180.10406738 105.40678711 180.47436523 106.04760742 C183.36964011 111.15134052 184.12652796 114.94612955 184.26025391 120.7878418 C184.29763672 121.84229492 184.33501953 122.89674805 184.37353516 123.9831543 C183.23245858 133.84456838 177.48165036 142.36829859 172.57275391 150.7878418 C171.85606624 152.02841435 171.13992987 153.26930554 170.42431641 154.51049805 C168.27482615 158.2334195 166.11292664 161.94902444 163.94775391 165.6628418 C163.33512695 166.71439453 162.7225 167.76594727 162.09130859 168.84936523 C159.81487478 172.75382502 157.53675883 176.65727535 155.25244141 180.55712891 C152.07057808 185.99567456 148.9178906 191.44955724 145.79931641 196.92456055 C145.44697937 197.54291779 145.09464233 198.16127502 144.73162842 198.79837036 C143.02667816 201.79221846 141.32502269 204.78785105 139.62744141 207.78588867 C136.39852601 213.46651152 133.12544242 219.11819546 129.74462891 224.7097168 C129.12168945 225.74322266 128.49875 226.77672852 127.85693359 227.84155273 C122.55447252 235.67726119 115.89338531 239.94418327 106.94775391 242.6628418 C103.06194311 243.19361734 99.2404171 243.21112692 95.32275391 243.18041992 C93.64753662 243.19093384 93.64753662 243.19093384 91.93847656 243.20166016 C88.27464371 243.21915613 84.61159358 243.20764651 80.94775391 243.1940918 C78.38525241 243.1967891 75.82275191 243.20067351 73.26025391 243.20568848 C67.90076975 243.2115722 62.54156187 243.20344287 57.18212891 243.18432617 C51.00964615 243.1625619 44.83769213 243.16961505 38.66522217 243.19163179 C32.69685523 243.21205824 26.72865074 243.20978539 20.76025391 243.19810486 C18.23421148 243.19544593 15.70815545 243.1986778 13.18212891 243.20802307 C9.64531253 243.21823786 6.10949624 243.20261705 2.57275391 243.18041992 C1.53973145 243.18851685 0.50670898 243.19661377 -0.55761719 243.20495605 C-11.25596654 243.08123485 -19.02786304 239.63587328 -26.73046875 232.26391602 C-30.67942124 227.83992655 -33.43655437 222.92541992 -36.23974609 217.7253418 C-37.20475883 215.99521182 -38.1698019 214.26509796 -39.1366272 212.53598022 C-40.12897954 210.75598742 -41.11335297 208.97175945 -42.09667969 207.18676758 C-45.16660458 201.63191063 -48.36718073 196.15217463 -51.55224609 190.6628418 C-52.79634761 188.50824711 -54.0398351 186.35329775 -55.28271484 184.19799805 C-56.20963135 182.59142334 -56.20963135 182.59142334 -57.15527344 180.95239258 C-59.09744549 177.58446128 -61.03791236 174.2155522 -62.97802734 170.84643555 C-64.27359963 168.59773727 -65.56917254 166.34903934 -66.86474609 164.1003418 C-67.48696045 163.01914063 -68.1091748 161.93793945 -68.75024414 160.82397461 C-71.5195581 156.0192573 -74.30132776 151.22418292 -77.14599609 146.46362305 C-77.61030029 145.68510986 -78.07460449 144.90659668 -78.55297852 144.10449219 C-79.39159717 142.70336067 -80.23505032 141.30510416 -81.0847168 139.91064453 C-84.81830005 133.67543754 -86.35174144 128.6214402 -86.42724609 121.3503418 C-86.46978516 119.49989258 -86.46978516 119.49989258 -86.51318359 117.61206055 C-85.50528636 108.97660206 -80.43599509 101.529636 -76.17724609 94.1003418 C-75.32622314 92.60531128 -75.32622314 92.60531128 -74.45800781 91.08007812 C-69.25707597 81.9666822 -63.96607721 72.90602765 -58.66552734 63.8503418 C-54.87256792 57.36530376 -51.11682616 50.85909099 -47.36474609 44.3503418 C-46.73777832 43.2660791 -46.11081055 42.18181641 -45.46484375 41.06469727 C-42.58170553 36.07497025 -39.71621888 31.077819 -36.90771484 26.0456543 C-36.17911255 24.75268433 -36.17911255 24.75268433 -35.43579102 23.43359375 C-34.55270645 21.86454867 -33.67824581 20.29059725 -32.81518555 18.71044922 C-25.35394935 5.52240696 -15.06489233 -0.11963813 0 0 Z M40.94775391 43.6628418 C37.89121742 47.660606 37.56916882 50.70161626 37.55957031 55.66870117 C37.55431335 56.35390335 37.5490564 57.03910553 37.54364014 57.74507141 C37.53048838 59.99914675 37.53916051 62.25250988 37.54931641 64.5065918 C37.54729427 66.07930639 37.54438167 67.65202006 37.5406189 69.22473145 C37.5362021 72.51652986 37.54260566 75.8080836 37.55664062 79.09985352 C37.57373233 83.31326524 37.56388767 87.52610362 37.54592323 91.73949432 C37.53506786 94.98578183 37.53853974 98.23193406 37.54630661 101.47822571 C37.54830378 103.03152027 37.54586634 104.58482722 37.53886795 106.1381073 C37.53122431 108.31139529 37.5428971 110.48376276 37.55957031 112.65698242 C37.56195709 113.89210571 37.56434387 115.127229 37.56680298 116.39978027 C37.98025227 119.94120878 38.84427754 121.81749324 40.94775391 124.6628418 C44.37694963 127.23473859 47.78714877 127.1649838 51.94775391 126.6628418 C55.4234091 124.64572048 57.65228903 122.54923644 58.94775391 118.6628418 C59.05243336 116.47156785 59.09641493 114.27723349 59.10888672 112.08349609 C59.11385162 111.4196994 59.11881653 110.75590271 59.12393188 110.07199097 C59.13853062 107.87700358 59.14535206 105.6820885 59.15087891 103.48706055 C59.15663276 101.95872496 59.16239046 100.43038939 59.16815186 98.90205383 C59.17865568 95.69674341 59.18450222 92.49145802 59.18798828 89.28613281 C59.1934682 85.18715683 59.21748781 81.08851382 59.24596024 76.98964214 C59.26462336 73.83170112 59.26979419 70.67383967 59.27132416 67.51584816 C59.27434352 66.00522862 59.28234785 64.49461025 59.29550934 62.98404503 C59.31264554 60.86589934 59.31067159 58.74855878 59.30419922 56.63037109 C59.30784485 55.42696579 59.31149048 54.22356049 59.31524658 52.98368835 C58.90083278 49.23883917 57.9290234 46.85352952 55.94775391 43.6628418 C50.05236857 39.97822596 46.86294705 40.08907927 40.94775391 43.6628418 Z M-3.92724609 64.0378418 C-13.33588321 73.80449403 -19.28650635 84.62515462 -23.05224609 97.6628418 C-23.29716797 98.4775293 -23.54208984 99.2922168 -23.79443359 100.1315918 C-28.61955213 119.43206594 -23.76855688 139.03422535 -14.11230469 155.91186523 C-4.20156211 172.28216596 12.5458043 183.42854539 30.82275391 188.4753418 C51.63560851 192.78657597 71.99588519 188.88390756 89.94775391 177.6628418 C105.95455693 166.66294636 117.12841572 149.7595327 120.94775391 130.6628418 C121.42758712 127.91470614 121.78075117 125.42091735 121.94775391 122.6628418 C122.00060547 121.80561523 122.05345703 120.94838867 122.10791016 120.06518555 C122.73529105 99.79805491 115.77125027 81.61988839 102.51025391 66.3503418 C96.14181044 59.0145489 96.14181044 59.0145489 87.55322266 55.38549805 C83.95381095 55.61227843 81.69090757 56.01258234 78.94775391 58.4128418 C77.79939598 60.99664713 77.0831537 62.81944605 76.94775391 65.6628418 C78.81930017 70.20715183 80.89105647 72.79434401 84.69775391 75.8503418 C96.83964284 86.39927154 101.97474756 100.79216433 103.26025391 116.4753418 C102.73359473 130.84143381 97.26705793 145.23735191 87.23681641 155.63549805 C73.91425316 167.43483307 59.60900657 171.58912332 42.15478516 170.84204102 C27.72584049 169.67048732 15.65331671 162.00456754 5.94775391 151.6628418 C-3.80010404 139.24969956 -6.93812299 125.16568752 -6.05224609 109.6628418 C-3.94594344 95.22217363 3.12286197 82.6291777 14.60009766 73.5690918 C17.79468162 70.97515341 18.86510291 69.40670073 19.32275391 65.2878418 C18.87909686 60.99915701 18.18641705 59.48629172 14.94775391 56.6628418 C6.58709483 53.98112096 1.85554909 58.612561 -3.92724609 64.0378418 Z " fill="#6CB23D" transform="translate(151.05224609375,78.337158203125)"/>
<path d="M0 0 C1.51896018 3.91681556 0.3781217 6.50343984 -0.9375 10.375 C-3.20292557 17.78628915 -3.4252104 24.22809888 -3 32 C-1.68 32.66 -0.36 33.32 1 34 C0.125 41.625 0.125 41.625 -1 45 C-1.483059 43.60550891 -1.96125517 42.20933293 -2.4375 40.8125 C-2.83775391 39.64654297 -2.83775391 39.64654297 -3.24609375 38.45703125 C-7.21008652 25.53811181 -5.10154852 12.26589709 0 0 Z " fill="#70A84A" transform="translate(149,171)"/>
<path d="M0 0 C2.53044083 3.31575006 2.99714501 6.29822505 3.8125 10.375 C2.8225 10.705 1.8325 11.035 0.8125 11.375 C0.72613281 10.76011719 0.63976562 10.14523438 0.55078125 9.51171875 C-0.29859976 4.33587561 -0.29859976 4.33587561 -3.375 0.25 C-7.07794148 -0.90202624 -9.43825382 -0.56231155 -13.1875 0.375 C-16.03998773 1.8171908 -16.03998773 1.8171908 -18.1875 3.375 C-18.5175 2.715 -18.8475 2.055 -19.1875 1.375 C-18.5275 1.375 -17.8675 1.375 -17.1875 1.375 C-17.1875 0.715 -17.1875 0.055 -17.1875 -0.625 C-16.5275 -0.625 -15.8675 -0.625 -15.1875 -0.625 C-15.1875 -1.285 -15.1875 -1.945 -15.1875 -2.625 C-8.86766043 -3.69615925 -5.3254186 -3.95602524 0 0 Z " fill="#6FA948" transform="translate(169.1875,135.625)"/>
<path d="M0 0 C4.78149157 7.17223735 4.87289973 17.3428529 3.32421875 25.60546875 C2.58872773 29.08075096 1.81575133 32.54276818 1 36 C-0.13742318 32.58773047 0.29882297 30.48187225 1 27 C1.15533521 23.89551485 1.13951096 20.79526472 1.125 17.6875 C1.12886719 16.87087891 1.13273438 16.05425781 1.13671875 15.21289062 C1.12849806 10.05440865 0.74025307 5.1053962 0 0 Z " fill="#6FA549" transform="translate(251,177)"/>
<path d="M0 0 C2.9552728 2.61778794 4.75832727 5.67583335 6.75 9.0625 C7.38421875 10.12597656 8.0184375 11.18945312 8.671875 12.28515625 C9.11015625 13.18105469 9.5484375 14.07695312 10 15 C9.67 15.66 9.34 16.32 9 17 C5.30816545 13.60750339 3.07165158 10.55763348 1 6 C0.67 5.67 0.34 5.34 0 5 C-0.04063832 3.33382885 -0.042721 1.66611905 0 0 Z " fill="#6CA748" transform="translate(313,154)"/>
<path d="M0 0 C0.66 0.66 1.32 1.32 2 2 C-10.23665298 8.39784394 -10.23665298 8.39784394 -17 8 C-16.484375 7.7525 -15.96875 7.505 -15.4375 7.25 C-13.46228213 6.23706776 -11.53467618 5.13165996 -9.625 4 C-6.52627641 2.20635438 -3.44620491 1.00864534 0 0 Z " fill="#72AD4B" transform="translate(225,241)"/>
<path d="M0 0 C0.66 0.33 1.32 0.66 2 1 C1.67 1.721875 1.34 2.44375 1 3.1875 C-0.00603529 6.01697427 -0.16977402 8.02895466 0 11 C-1.65 11 -3.3 11 -5 11 C-3.77472971 6.94718288 -2.30119506 3.55639236 0 0 Z " fill="#71AA45" transform="translate(100,129)"/>
<path d="M0 0 C0.66 2.31 1.32 4.62 2 7 C-1.37462715 6.45276317 -3.08235 5.9451 -6 4 C-2.25 0 -2.25 0 0 0 Z " fill="#6FAC45" transform="translate(167,151)"/>
<path d="M0 0 C2.97 0.495 2.97 0.495 6 1 C5.773125 1.5775 5.54625 2.155 5.3125 2.75 C4.71552007 5.10982542 4.71552007 5.10982542 6.5 7 C6.995 7.66 7.49 8.32 8 9 C7.59375 11.125 7.59375 11.125 7 13 C5.83072457 11.02237345 4.66464427 9.04285742 3.5 7.0625 C2.8503125 5.96035156 2.200625 4.85820312 1.53125 3.72265625 C0 1 0 1 0 0 Z " fill="#70A647" transform="translate(89,250)"/>
<path d="M0 0 C1.125 3.75 1.125 3.75 0 6 C-0.66 6 -1.32 6 -2 6 C-2.103125 6.763125 -2.20625 7.52625 -2.3125 8.3125 C-3.04364039 11.17059424 -3.76951913 12.15742885 -6 14 C-6 10.27792613 -4.82035432 8.53604411 -3 5.3125 C-2.443125 4.31863281 -1.88625 3.32476562 -1.3125 2.30078125 C-0.879375 1.54152344 -0.44625 0.78226562 0 0 Z " fill="#71A54A" transform="translate(119,96)"/>
<path d="M0 0 C0.66 0 1.32 0 2 0 C1.814375 1.051875 1.62875 2.10375 1.4375 3.1875 C1.04920669 6.57119882 1.11752515 8.76425888 2 12 C1.01 11.67 0.02 11.34 -1 11 C-2.23076923 4.6 -2.23076923 4.6 -1.0625 1.5625 C-0.711875 1.046875 -0.36125 0.53125 0 0 Z " fill="#71A64C" transform="translate(228,137)"/>
<path d="M0 0 C0.33 0.66 0.66 1.32 1 2 C1.99 2.33 2.98 2.66 4 3 C3.071875 3.3403125 3.071875 3.3403125 2.125 3.6875 C-0.22720631 4.84931972 -0.22720631 4.84931972 -1 7.5 C-2.2076589 10.51914725 -3.12340604 10.74728973 -6 12 C-5.65066406 11.46890625 -5.30132812 10.9378125 -4.94140625 10.390625 C-4.48636719 9.68421875 -4.03132812 8.9778125 -3.5625 8.25 C-2.88380859 7.20585937 -2.88380859 7.20585937 -2.19140625 6.140625 C-1.0391991 4.07042986 -0.45323018 2.31303676 0 0 Z " fill="#6EA844" transform="translate(211,192)"/>
<path d="M0 0 C-3.85623679 3.97674419 -3.85623679 3.97674419 -7.11328125 4.04296875 C-9.08863015 3.7798228 -11.04718291 3.39718314 -13 3 C-4.58823529 -1.52941176 -4.58823529 -1.52941176 0 0 Z " fill="#71AB4B" transform="translate(228,264)"/>
<path d="M0 0 C2.64752004 2.57784846 4.94432065 4.91648098 7 8 C1.25 6.25 1.25 6.25 -1 4 C-0.625 1.875 -0.625 1.875 0 0 Z " fill="#6EA948" transform="translate(140,239)"/>
<path d="M0 0 C0.33 0 0.66 0 1 0 C0.67 2.64 0.34 5.28 0 8 C-0.66 8 -1.32 8 -2 8 C-2.33 9.32 -2.66 10.64 -3 12 C-3.99 12 -4.98 12 -6 12 C-4.02 8.04 -2.04 4.08 0 0 Z " fill="#6CA745" transform="translate(267,222)"/>
<path d="M0 0 C0.66 0.33 1.32 0.66 2 1 C0.515 3.475 0.515 3.475 -1 6 C-3.97 5.505 -3.97 5.505 -7 5 C-4.702779 3.25728062 -2.40133271 1.60088848 0 0 Z " fill="#71AB49" transform="translate(239,256)"/>
<path d="M0 0 C0.66 0.33 1.32 0.66 2 1 C0.90931332 4.77545388 0.0916909 7.47043472 -3 10 C-2.67 7.36 -2.34 4.72 -2 2 C-1.34 2 -0.68 2 0 2 C0 1.34 0 0.68 0 0 Z " fill="#6EA747" transform="translate(318,232)"/>
<path d="M0 0 C1.98 1.65 3.96 3.3 6 5 C5.01 5.99 4.02 6.98 3 8 C0 3.375 0 3.375 0 0 Z " fill="#6DA946" transform="translate(234,152)"/>
<path d="M0 0 C4.29 0.66 8.58 1.32 13 2 C13 2.33 13 2.66 13 3 C7.96488101 4.0070238 4.76052962 3.97387813 0 2 C0 1.34 0 0.68 0 0 Z " fill="#73AA4F" transform="translate(176,265)"/>
<path d="M0 0 C2.48046875 0.6796875 2.48046875 0.6796875 5.1875 1.875 C6.08855469 2.26429688 6.98960937 2.65359375 7.91796875 3.0546875 C8.94857422 3.52261719 8.94857422 3.52261719 10 4 C6.57056481 5.18771723 4.62215325 4.80226223 1.25 3.5625 C0.45078125 3.27503906 -0.3484375 2.98757812 -1.171875 2.69140625 C-1.77515625 2.46324219 -2.3784375 2.23507813 -3 2 C-2.01 1.34 -1.02 0.68 0 0 Z " fill="#72AC4E" transform="translate(180,244)"/>
<path d="M0 0 C4.42857143 5.14285714 4.42857143 5.14285714 5 9 C4.566875 8.525625 4.13375 8.05125 3.6875 7.5625 C1.97690387 5.76313043 1.97690387 5.76313043 -1 5 C-0.67 3.35 -0.34 1.7 0 0 Z " fill="#6FA847" transform="translate(326,176)"/>
<path d="M0 0 C2 0 2 0 3.64453125 1.20703125 C5 3 5 3 5.07421875 5.26171875 C4.94660156 6.06222656 4.81898438 6.86273438 4.6875 7.6875 C4.50767578 8.89986328 4.50767578 8.89986328 4.32421875 10.13671875 C4.21722656 10.75160156 4.11023438 11.36648437 4 12 C3.67 12 3.34 12 3 12 C2.86722656 11.38511719 2.73445312 10.77023438 2.59765625 10.13671875 C2.42105469 9.32847656 2.24445313 8.52023438 2.0625 7.6875 C1.88847656 6.88699219 1.71445313 6.08648437 1.53515625 5.26171875 C1.00113841 2.854599 1.00113841 2.854599 0 0 Z " fill="#71AA4C" transform="translate(207,122)"/>
<path d="M0 0 C0.66 0.99 1.32 1.98 2 3 C0.02 5.31 -1.96 7.62 -4 10 C-4.33 9.34 -4.66 8.68 -5 8 C-4.00390625 6.0546875 -4.00390625 6.0546875 -2.5625 3.875 C-2.08941406 3.15054688 -1.61632812 2.42609375 -1.12890625 1.6796875 C-0.75636719 1.12539062 -0.38382812 0.57109375 0 0 Z " fill="#6FA749" transform="translate(109,114)"/>
<path d="M0 0 C0.66 0.33 1.32 0.66 2 1 C2 1.66 2 2.32 2 3 C2.66 3.33 3.32 3.66 4 4 C4.72159424 5.64363134 5.39351421 7.31050386 6 9 C0.125 4.375 0.125 4.375 -1 1 C-0.67 0.67 -0.34 0.34 0 0 Z " fill="#70AA46" transform="translate(122,304)"/>
<path d="M0 0 C1.98 0.495 1.98 0.495 4 1 C2.68 3.64 1.36 6.28 0 9 C-1.53445094 5.93109813 -0.54984289 3.29905734 0 0 Z " fill="#6DA746" transform="translate(280,295)"/>
<path d="M0 0 C0.66 0 1.32 0 2 0 C3.25541557 3.76624671 2.37061958 5.37188934 1 9 C0.67 9 0.34 9 0 9 C0 6.03 0 3.06 0 0 Z " fill="#73A94E" transform="translate(273,192)"/>
<path d="" fill="#FFFFFF" transform="translate(0,0)"/>
<path d="" fill="#FFFFFF" transform="translate(0,0)"/>
<path d="" fill="#FFFFFF" transform="translate(0,0)"/>
<path d="" fill="#FFFFFF" transform="translate(0,0)"/>
<path d="" fill="#FFFFFF" transform="translate(0,0)"/>
<path d="" fill="#FFFFFF" transform="translate(0,0)"/>
<path d="" fill="#FFFFFF" transform="translate(0,0)"/>
<path d="" fill="#FFFFFF" transform="translate(0,0)"/>
<path d="" fill="#FFFFFF" transform="translate(0,0)"/>
<path d="" fill="#FFFFFF" transform="translate(0,0)"/>
<path d="" fill="#FFFFFF" transform="translate(0,0)"/>
<path d="" fill="#FFFFFF" transform="translate(0,0)"/>
<path d="" fill="#FFFFFF" transform="translate(0,0)"/>
<path d="" fill="#FFFFFF" transform="translate(0,0)"/>
<path d="" fill="#FFFFFF" transform="translate(0,0)"/>
<path d="" fill="#FFFFFF" transform="translate(0,0)"/>
<path d="" fill="#FFFFFF" transform="translate(0,0)"/>
<path d="" fill="#FFFFFF" transform="translate(0,0)"/>
<path d="" fill="#FFFFFF" transform="translate(0,0)"/>
<path d="" fill="#FFFFFF" transform="translate(0,0)"/>
<path d="" fill="#FFFFFF" transform="translate(0,0)"/>
<path d="" fill="#FFFFFF" transform="translate(0,0)"/>
<path d="" fill="#FFFFFF" transform="translate(0,0)"/>
<path d="" fill="#FFFFFF" transform="translate(0,0)"/>
<path d="" fill="#FFFFFF" transform="translate(0,0)"/>
<path d="" fill="#FFFFFF" transform="translate(0,0)"/>
<path d="" fill="#FFFFFF" transform="translate(0,0)"/>
<path d="" fill="#FFFFFF" transform="translate(0,0)"/>
<path d="" fill="#FFFFFF" transform="translate(0,0)"/>
<path d="" fill="#FFFFFF" transform="translate(0,0)"/>
<path d="" fill="#FFFFFF" transform="translate(0,0)"/>
<path d="" fill="#FFFFFF" transform="translate(0,0)"/>
<path d="" fill="#FFFFFF" transform="translate(0,0)"/>
<path d="" fill="#FFFFFF" transform="translate(0,0)"/>
<path d="" fill="#FFFFFF" transform="translate(0,0)"/>
<path d="" fill="#FFFFFF" transform="translate(0,0)"/>
<path d="" fill="#FFFFFF" transform="translate(0,0)"/>
<path d="" fill="#FFFFFF" transform="translate(0,0)"/>
<path d="" fill="#FFFFFF" transform="translate(0,0)"/>
<path d="" fill="#FFFFFF" transform="translate(0,0)"/>
<path d="" fill="#FFFFFF" transform="translate(0,0)"/>
<path d="" fill="#FFFFFF" transform="translate(0,0)"/>
<path d="" fill="#FFFFFF" transform="translate(0,0)"/>
<path d="" fill="#FFFFFF" transform="translate(0,0)"/>
<path d="" fill="#FFFFFF" transform="translate(0,0)"/>
<path d="" fill="#FFFFFF" transform="translate(0,0)"/>
<path d="" fill="#FFFFFF" transform="translate(0,0)"/>
<path d="" fill="#FFFFFF" transform="translate(0,0)"/>
<path d="" fill="#FFFFFF" transform="translate(0,0)"/>
<path d="" fill="#FFFFFF" transform="translate(0,0)"/>
<path d="" fill="#FFFFFF" transform="translate(0,0)"/>
<path d="" fill="#FFFFFF" transform="translate(0,0)"/>
<path d="" fill="#FFFFFF" transform="translate(0,0)"/>
<path d="" fill="#FFFFFF" transform="translate(0,0)"/>
<path d="" fill="#FFFFFF" transform="translate(0,0)"/>
<path d="" fill="#FFFFFF" transform="translate(0,0)"/>
<path d="" fill="#FFFFFF" transform="translate(0,0)"/>
<path d="" fill="#FFFFFF" transform="translate(0,0)"/>
<path d="" fill="#FFFFFF" transform="translate(0,0)"/>
<path d="" fill="#FFFFFF" transform="translate(0,0)"/>
<path d="" fill="#FFFFFF" transform="translate(0,0)"/>
<path d="" fill="#FFFFFF" transform="translate(0,0)"/>
<path d="" fill="#FFFFFF" transform="translate(0,0)"/>
<path d="" fill="#FFFFFF" transform="translate(0,0)"/>
<path d="" fill="#FFFFFF" transform="translate(0,0)"/>
<path d="" fill="#FFFFFF" transform="translate(0,0)"/>
<path d="" fill="#FFFFFF" transform="translate(0,0)"/>
<path d="" fill="#FFFEFF" transform="translate(0,0)"/>
<path d="" fill="#FFFFFF" transform="translate(0,0)"/>
<path d="" fill="#FFFFFF" transform="translate(0,0)"/>
<path d="" fill="#FFFFFF" transform="translate(0,0)"/>
<path d="" fill="#FFFFFF" transform="translate(0,0)"/>
<path d="" fill="#FFFFFF" transform="translate(0,0)"/>
<path d="" fill="#FFFFFF" transform="translate(0,0)"/>
<path d="" fill="#FFFFFF" transform="translate(0,0)"/>
<path d="" fill="#FFFFFF" transform="translate(0,0)"/>
<path d="" fill="#FFFFFF" transform="translate(0,0)"/>
<path d="" fill="#FFFFFF" transform="translate(0,0)"/>
<path d="" fill="#FFFFFF" transform="translate(0,0)"/>
<path d="" fill="#FFFFFF" transform="translate(0,0)"/>
<path d="" fill="#FFFFFF" transform="translate(0,0)"/>
<path d="" fill="#FFFFFF" transform="translate(0,0)"/>
<path d="" fill="#FFFFFF" transform="translate(0,0)"/>
<path d="" fill="#FFFFFF" transform="translate(0,0)"/>
<path d="" fill="#FFFFFF" transform="translate(0,0)"/>
<path d="" fill="#FFFFFF" transform="translate(0,0)"/>
</svg>
